<?xml version="1.0" encoding="UTF-8"?>
<svg xmlns="http://www.w3.org/2000/svg" version="1.1" viewBox="0 0 511.71 356.57">
  <defs>
    <style>
      .cls-1 {
        fill: #ff7ded;
      }

      .cls-2 {
        display: none;
      }

      .cls-3 {
        font-family: NeutralStd-Medium, 'Neutral Std';
        font-size: 183px;
        font-weight: 500;
        letter-spacing: -.01em;
      }
    </style>
  </defs>
  <!-- Generator: Adobe Illustrator 28.7.1, SVG Export Plug-In . SVG Version: 1.2.0 Build 142)  -->
  <g>
    <g id="Layer_1" class="cls-2">
      <text class="cls-3" transform="translate(19.39 170.59)"><tspan x="0" y="0">layer</tspan></text>
      <text class="cls-3" transform="translate(-43.61 300.59)"><tspan x="0" y="0">layer</tspan></text>
    </g>
    <g id="Layer_2">
      <g>
        <path d="M71.27,5.78h28.15v142.34h-28.15V5.78Z"/>
        <path d="M128.64,142.18c-6.11-5.57-9.16-12.79-9.16-21.67,0-21.62,16.77-32.44,50.31-32.44l14.12.36v-3.66c0-5.54-1.31-9.75-3.93-12.64-2.62-2.89-7-4.33-13.14-4.33-5.12,0-9.1,1.12-11.93,3.35-2.83,2.23-4.69,5.2-5.58,8.89l-26.18-5.45c.77-3.46,2.22-6.78,4.33-9.96,2.12-3.19,4.92-6.21,8.4-9.07,3.49-2.86,7.97-5.14,13.45-6.84,5.48-1.7,11.59-2.55,18.32-2.55,14.3,0,25.09,3.26,32.39,9.78,7.3,6.52,10.95,16.87,10.95,31.05v36.01c0,3.51.07,7.37.22,11.57.15,4.2.31,7.52.49,9.96l.18,3.57h-26.36l-.71-12.78c-3.46,4.88-7.61,8.64-12.47,11.26-4.85,2.62-11.36,3.93-19.52,3.93-10.01,0-18.06-2.78-24.17-8.35ZM178.1,124.13c3.99-4.5,5.99-10.23,5.99-17.2v-1.79c-3.75-.12-7.95-.18-12.6-.18-8.88,0-15.13,1.21-18.76,3.62-3.63,2.41-5.45,5.82-5.45,10.23,0,3.63,1.31,6.55,3.93,8.76s6.02,3.31,10.19,3.31c7.15,0,12.72-2.25,16.71-6.75Z"/>
        <path d="M258.74,149.2l-36.99-100.26h29.49l18.14,51.38c.95,2.74,1.76,5.6,2.41,8.58.65,2.98,1.07,5.27,1.25,6.88l.18,2.32h.89c.6-5.6,2-11.65,4.2-18.14l17.25-51.02h27.43l-51.2,139.84h-27.34l14.3-39.58Z"/>
        <path d="M342.43,136.6c-9.17-9.53-13.76-22.16-13.76-37.89,0-10.07,1.95-19.03,5.85-26.9,3.9-7.86,9.68-14.07,17.33-18.63,7.66-4.56,16.64-6.84,26.94-6.84,16.03,0,28.04,5.24,36.06,15.73,8.01,10.48,11.93,25.14,11.75,43.96h-70.5c.48,6.97,2.83,12.61,7.06,16.93,4.23,4.32,9.62,6.48,16.17,6.48,4.82,0,8.92-.95,12.29-2.86,3.37-1.91,6.36-4.85,8.98-8.85l23.05,7.33c-3.4,7.8-8.92,14.06-16.58,18.76-7.65,4.71-17.2,7.06-28.64,7.06-14.83,0-26.84-4.77-36.01-14.3ZM362.84,72.4c-3.72,3.9-5.91,9.07-6.57,15.5h41.73c-.36-6.55-2.31-11.75-5.85-15.59-3.54-3.84-8.36-5.76-14.43-5.76s-11.15,1.95-14.88,5.85Z"/>
        <path d="M444.16,48.94h26.27v18.32h.8c1.79-4.29,3.9-7.85,6.34-10.68,2.44-2.83,5.17-4.93,8.18-6.3,3.01-1.37,6.05-2.25,9.11-2.64,3.07-.39,6.54-.43,10.41-.13l-1.34,27.43c-2.2-.36-5.18-.54-8.94-.54-9.29,0-15.58,3.1-18.85,9.29-1.43,2.32-2.43,4.96-2.99,7.91-.57,2.95-.85,6.9-.85,11.84v44.68h-28.15V48.94Z"/>
      </g>
      <g>
        <path d="M8.27,135.78h28.15v142.34H8.27v-142.34Z"/>
        <path d="M65.64,272.18c-6.11-5.57-9.16-12.79-9.16-21.67,0-21.62,16.77-32.44,50.31-32.44l14.12.36v-3.66c0-5.54-1.31-9.75-3.93-12.64-2.62-2.89-7-4.33-13.14-4.33-5.12,0-9.1,1.12-11.93,3.35-2.83,2.23-4.69,5.2-5.58,8.89l-26.18-5.45c.77-3.46,2.22-6.78,4.33-9.96,2.12-3.19,4.92-6.21,8.4-9.07,3.49-2.86,7.97-5.14,13.45-6.84,5.48-1.7,11.59-2.55,18.32-2.55,14.3,0,25.09,3.26,32.39,9.79,7.3,6.52,10.95,16.87,10.95,31.05v36.01c0,3.52.07,7.37.22,11.57.15,4.2.31,7.52.49,9.96l.18,3.57h-26.36l-.71-12.78c-3.46,4.88-7.61,8.64-12.47,11.26-4.85,2.62-11.36,3.93-19.52,3.93-10.01,0-18.06-2.78-24.17-8.35ZM115.1,254.13c3.99-4.5,5.99-10.23,5.99-17.2v-1.79c-3.75-.12-7.95-.18-12.6-.18-8.88,0-15.13,1.21-18.76,3.62-3.63,2.41-5.45,5.82-5.45,10.23,0,3.63,1.31,6.55,3.93,8.76s6.02,3.31,10.19,3.31c7.15,0,12.72-2.25,16.71-6.75Z"/>
        <path d="M195.74,279.2l-36.99-100.26h29.49l18.14,51.38c.95,2.74,1.76,5.6,2.41,8.58s1.07,5.27,1.25,6.88l.18,2.32h.89c.6-5.6,2-11.65,4.2-18.14l17.25-51.02h27.43s-22.69,62.22-37.13,102.06c-13.62,37.19-13.05,37.86,91.78,38l-105.85-.22c-18.84,0-27.79,14.79-38.41,31.12l25.36-70.71Z"/>
        <path d="M279.43,266.6c-9.17-9.53-13.76-22.16-13.76-37.89,0-10.07,1.95-19.03,5.85-26.9,3.9-7.86,9.68-14.07,17.33-18.63,7.66-4.56,16.64-6.83,26.94-6.83,16.03,0,28.04,5.24,36.06,15.73,8.01,10.48,11.93,25.14,11.75,43.96h-70.5c.48,6.97,2.83,12.61,7.06,16.93,4.23,4.32,9.62,6.48,16.17,6.48,4.82,0,8.92-.95,12.29-2.86,3.37-1.91,6.36-4.85,8.98-8.85l23.05,7.33c-3.4,7.8-8.92,14.06-16.58,18.76-7.65,4.71-17.2,7.06-28.64,7.06-14.83,0-26.84-4.77-36.01-14.3ZM299.84,202.4c-3.72,3.9-5.91,9.07-6.57,15.5h41.73c-.36-6.55-2.31-11.75-5.85-15.59-3.54-3.84-8.36-5.76-14.43-5.76s-11.15,1.95-14.88,5.85Z"/>
        <path d="M381.16,178.94h26.27v18.32h.8c1.79-4.29,3.9-7.85,6.34-10.68,2.44-2.83,5.17-4.93,8.18-6.3,3.01-1.37,6.05-2.25,9.11-2.64,3.07-.39,6.54-.43,10.41-.13l-1.34,27.43c-2.2-.36-5.18-.54-8.94-.54-9.29,0-15.58,3.1-18.85,9.29-1.43,2.32-2.43,4.96-2.99,7.91-.57,2.95-.85,6.9-.85,11.84v44.68h-28.15v-99.18Z"/>
      </g>
    </g>
    <g id="Layer_3" class="cls-2">
      <rect class="cls-1" x="217.86" y="251" width="2" height="75" transform="translate(111.95 -57.48) rotate(20.01)"/>
      <rect class="cls-1" x="169.75" y="307.98" width="2" height="75" transform="translate(127.4 -37.45) rotate(19.84)"/>
    </g>
  </g>
</svg>